<svg id="visual" viewBox="0 0 2000 300" width="2000" height="300" xmlns="http://www.w3.org/2000/svg" xmlns:xlink="http://www.w3.org/1999/xlink" version="1.1"><rect x="0" y="0" width="2000" height="300" fill="#FCF7F7"></rect><path d="M0 212L66.7 203.3C133.3 194.7 266.7 177.3 400 157.8C533.3 138.3 666.7 116.7 800 113.2C933.3 109.7 1066.7 124.3 1200 140C1333.3 155.7 1466.7 172.3 1600 174.7C1733.3 177 1866.7 165 1933.3 159L2000 153L2000 0L1933.3 0C1866.7 0 1733.3 0 1600 0C1466.7 0 1333.3 0 1200 0C1066.7 0 933.3 0 800 0C666.7 0 533.3 0 400 0C266.7 0 133.3 0 66.7 0L0 0Z" fill="#d68201"></path></svg>